<svg xmlns="http://www.w3.org/2000/svg" width="1097.002" height="478.999" viewBox="0 0 1097.002 478.999">
  <path id="Subtraction_3" data-name="Subtraction 3" d="M4261.5,2841c-18.059,0-36.272-.822-54.136-2.443-17.615-1.6-35.325-4.013-52.64-7.177-17.1-3.124-34.221-7.055-50.9-11.683-16.494-4.577-32.949-9.947-48.908-15.959-15.814-5.958-31.517-12.69-46.672-20.007-15.047-7.265-29.915-15.281-44.189-23.825-14.2-8.5-28.151-17.724-41.459-27.415-13.27-9.662-26.218-20.016-38.484-30.775s-24.12-22.159-35.26-33.907c-11.158-11.766-21.854-24.151-31.791-36.81-9.975-12.708-19.421-25.993-28.074-39.484-8.707-13.574-16.819-27.681-24.112-41.928-7.352-14.364-14.047-29.216-19.9-44.145A476.083,476.083,0,0,1,3713,2362H4810a476.679,476.679,0,0,1-31.978,143.441c-5.854,14.928-12.55,29.781-19.9,44.145-7.295,14.251-15.407,28.357-24.111,41.928-8.656,13.494-18.1,26.779-28.075,39.484-9.937,12.658-20.632,25.043-31.791,36.81-11.14,11.748-23,23.156-35.26,33.907s-25.215,21.115-38.483,30.775c-13.309,9.69-27.258,18.914-41.459,27.415-14.275,8.545-29.142,16.561-44.189,23.825-15.155,7.317-30.857,14.048-46.672,20.007-15.958,6.012-32.413,11.382-48.908,15.959-16.677,4.628-33.8,8.559-50.9,11.683-17.315,3.164-35.026,5.579-52.64,7.177C4297.773,2840.177,4279.559,2841,4261.5,2841Z" transform="translate(-3712.999 -2362)" fill="#ebebeb"/>
</svg>
